# xmcd CD database file
#
# Track frame offsets:
#	182
#	16100
#	33820
#
# Disc length: 750 seconds
#
# Revision: 0
# Processed by: cddbd v1.5.2PL0 Copyright (c) Steve Scherf et al.
# Submitted via: CDex 1.51
#
DISCID=1202ec03
DTITLE=Nina Hagen - So Bad
DYEAR=1994
DGENRE=New Age
TTITLE0=So Bad (Radio Edit)
TTITLE1=Revolution Ballroom (Album Version)
TTITLE2=So Bad (Album Version)
EXTD=YEAR: 1994
EXTT0=
EXTT1=
EXTT2=
PLAYORDER=
